<svg width="182" height="56" viewBox="0 0 182 56" fill="none" xmlns="http://www.w3.org/2000/svg">
<g clip-path="url(#clip0_1669_4646)">
<path d="M22.055 24.7275C22.0676 25.5894 21.9537 26.4483 21.7172 27.2745C21.507 27.9802 21.1935 28.6479 20.7877 29.2541C20.4183 29.8112 19.969 30.3059 19.4554 30.7211C18.9688 31.1178 18.4395 31.4543 17.8782 31.7238C17.3464 31.9788 16.7881 32.1692 16.2144 32.2912C15.6947 32.4054 15.1653 32.4648 14.6341 32.4685L23 39.9839H16.8031L8.4558 32.4685H5.57733V28.2998H14.6341C15.1069 28.2661 15.5718 28.1574 16.013 27.9774C16.4121 27.8108 16.7778 27.568 17.0912 27.2616C17.3977 26.9592 17.6368 26.5905 17.7915 26.1816C17.9633 25.7191 18.0474 25.2264 18.0394 24.7307V22.0999C18.049 21.9159 18.0194 21.7321 17.9526 21.5614C17.9067 21.4524 17.8327 21.3586 17.7388 21.2906C17.6548 21.2337 17.5594 21.1973 17.4599 21.1842C17.3639 21.1842 17.274 21.1842 17.1904 21.1842H3.98781V40H8.64454e-05V19.1015C-0.00243654 18.8214 0.0502918 18.5438 0.15501 18.2858C0.252085 18.0348 0.395215 17.8059 0.576401 17.6119C0.757678 17.4175 0.976189 17.2648 1.21778 17.1638C1.47125 17.0551 1.74305 17.0003 2.01719 17.0026H17.2183C18.0017 16.9763 18.7793 17.1501 19.4832 17.5088C20.0646 17.8144 20.5769 18.2452 20.986 18.7726C21.3606 19.2609 21.6424 19.8189 21.8164 20.4169C21.9783 20.9512 22.0639 21.5074 22.0705 22.0676L22.055 24.7275Z" fill="black"/>
<path d="M44.9845 40H30.5923C29.9779 39.9905 29.3681 39.8884 28.7817 39.6969C28.0902 39.4808 27.4482 39.12 26.8947 38.6367C26.3412 38.1533 25.8878 37.5573 25.5621 36.8852C25.1659 36.0346 24.974 35.0962 25.0028 34.1509V19.0992C25.0003 18.8191 25.0529 18.5414 25.1573 18.2834C25.2541 18.0324 25.3969 17.8035 25.5775 17.6095C25.7583 17.415 25.9762 17.2623 26.2171 17.1613C26.4699 17.0526 26.7409 16.9978 27.0143 17.0001H45V21.166H28.9949V34.1347C28.9802 34.3618 29.0096 34.5897 29.0813 34.8046C29.153 35.0196 29.2654 35.2173 29.412 35.3858C29.5759 35.5387 29.7676 35.6557 29.9756 35.7299C30.1837 35.8042 30.4039 35.8341 30.6232 35.8179H45L44.9845 40ZM43.1894 30.6072H30.5923V26.4154H43.2048L43.1894 30.6072Z" fill="black"/>
<path d="M71.9991 26.6244C72.0116 27.486 71.8981 28.3447 71.6625 29.1706C71.4529 29.876 71.1405 30.5435 70.736 31.1495C70.3661 31.7049 69.9185 32.1992 69.4082 32.616C68.9237 33.0107 68.3961 33.344 67.8363 33.6087C66.8188 34.0845 65.718 34.3358 64.6031 34.3468H55.6043V30.1794H64.6309C65.1073 30.1481 65.5762 30.0394 66.0205 29.8571C66.4166 29.6924 66.7792 29.4507 67.089 29.1448C67.3891 28.8385 67.6238 28.4695 67.7776 28.0619C67.9481 27.6061 68.032 27.12 68.0247 26.6308V24.7389C67.9791 24.2456 67.87 23.761 67.7004 23.2982C67.5501 22.88 67.3224 22.4967 67.0303 22.1701C66.7427 21.8554 66.3957 21.6063 66.0112 21.4385C65.5714 21.2557 65.1011 21.1659 64.6278 21.1742H55.6198C55.4003 21.1577 55.1799 21.1878 54.9719 21.2626C54.7638 21.3374 54.5725 21.4553 54.4092 21.6093C54.2626 21.777 54.15 21.974 54.0783 22.1884C54.0067 22.4028 53.9774 22.6301 53.9924 22.8566V40H50.0025V22.8566C49.9754 21.915 50.1672 20.9806 50.5615 20.1332C50.8985 19.433 51.3756 18.8164 51.9604 18.325C52.5008 17.8743 53.1179 17.5342 53.7793 17.3227C54.3638 17.1221 54.9737 17.0135 55.5889 17.0004H64.6154C65.4339 16.9922 66.2487 17.1172 67.0303 17.371C67.7054 17.5919 68.3446 17.9179 68.9264 18.3379C69.4571 18.7224 69.9279 19.1898 70.3222 19.7238C70.6978 20.2324 71.0169 20.7839 71.2734 21.3676C71.5176 21.92 71.701 22.4996 71.82 23.0952C71.9269 23.6361 71.9827 24.1866 71.9867 24.7389L71.9991 26.6244Z" fill="black"/>
<path d="M94 40H79.5923C78.9779 39.9905 78.3681 39.8884 77.7817 39.6969C77.0903 39.4808 76.4482 39.12 75.8947 38.6367C75.3412 38.1533 74.8878 37.5573 74.5621 36.8852C74.1659 36.0346 73.974 35.0962 74.0028 34.1509V19.0992C74.0003 18.8191 74.0529 18.5414 74.1573 18.2834C74.2541 18.0324 74.3969 17.8035 74.5775 17.6095C74.7583 17.415 74.9762 17.2623 75.2171 17.1613C75.4699 17.0526 75.7409 16.9978 76.0143 17.0001H94V21.166H77.9949V34.1347C77.9802 34.3618 78.0096 34.5897 78.0813 34.8046C78.153 35.0196 78.2654 35.2173 78.412 35.3858C78.5759 35.5362 78.7669 35.651 78.9738 35.7235C79.1807 35.796 79.3993 35.8248 79.617 35.8082H93.9938L94 40ZM92.2048 30.6072H79.5923V26.4154H92.2048V30.6072Z" fill="black"/>
<path d="M120.097 24.7275C120.109 25.5894 120 26.4483 119.774 27.2745C119.573 27.9802 119.274 28.6479 118.886 29.2541C118.532 29.8104 118.103 30.3051 117.613 30.7211C117.148 31.1178 116.642 31.4543 116.106 31.7238C115.598 31.9788 115.065 32.1692 114.516 32.2912C114.02 32.4054 113.514 32.4648 113.006 32.4685L121 39.9839H115.079L107.103 32.4685H104.35V28.2998H113.004C113.455 28.2656 113.899 28.1569 114.321 27.9774C114.702 27.8108 115.052 27.568 115.351 27.2616C115.644 26.9592 115.873 26.5905 116.02 26.1816C116.184 25.7191 116.265 25.2264 116.257 24.7307V22.0999C116.266 21.9159 116.238 21.7321 116.174 21.5614C116.13 21.4524 116.06 21.3586 115.97 21.2906C115.89 21.2337 115.799 21.1973 115.704 21.1842C115.612 21.1842 115.526 21.1842 115.446 21.1842H102.849V40H99.0001V19.1015C98.9981 18.8218 99.0474 18.5445 99.1451 18.2858C99.24 18.0353 99.3776 17.8066 99.5507 17.6119C99.73 17.4148 99.946 17.262 100.184 17.1638C100.426 17.0551 100.686 17.0003 100.948 17.0026H115.461C116.209 16.9763 116.952 17.1501 117.625 17.5088C118.18 17.8153 118.669 18.246 119.061 18.7726C119.418 19.2617 119.687 19.8195 119.854 20.4169C120.009 20.9512 120.091 21.5074 120.097 22.0676V24.7275Z" fill="black"/>
<path d="M129 40H124V17H129V40Z" fill="black"/>
<path d="M155.984 30.627C155.999 31.9154 155.763 33.1943 155.289 34.3911C154.852 35.4998 154.194 36.5069 153.357 37.3505C152.519 38.1941 151.519 38.8565 150.419 39.2969C149.245 39.77 147.992 40.0087 146.728 39.9996H141.291C140.024 40.0114 138.768 39.776 137.591 39.3064C136.49 38.8653 135.489 38.2049 134.648 37.3647C133.811 36.517 133.151 35.5091 132.708 34.4005C132.226 33.2054 131.986 31.9259 132.001 30.6364V26.3547C131.986 25.0652 132.226 23.7857 132.708 22.5906C133.149 21.4808 133.809 20.4725 134.648 19.6264C135.491 18.7893 136.492 18.1293 137.591 17.6848C138.768 17.2154 140.025 16.9831 141.291 17.001H146.741C148.004 16.9878 149.258 17.2255 150.431 17.7005C151.527 18.1458 152.524 18.8058 153.365 19.6421C154.204 20.4872 154.865 21.4958 155.305 22.6063C155.779 23.8031 156.015 25.082 155.999 26.3704L155.984 30.627ZM151.96 26.3547C151.97 25.6126 151.841 24.8752 151.58 24.181C151.346 23.5546 150.982 22.9857 150.512 22.5124C150.042 22.0391 149.477 21.6723 148.855 21.4363C148.176 21.1755 147.455 21.0457 146.728 21.0536H141.291C140.559 21.0446 139.832 21.1744 139.148 21.4363C138.524 21.6745 137.957 22.041 137.482 22.5122C137.01 22.9857 136.644 23.5544 136.407 24.181C136.145 24.8748 136.016 25.6124 136.027 26.3547V30.627C136.016 31.3703 136.145 32.109 136.407 32.8039C136.645 33.43 137.011 33.9986 137.482 34.4726C137.958 34.9419 138.525 35.3071 139.148 35.5454C139.832 35.8066 140.559 35.9343 141.291 35.9218H146.709C147.441 35.9323 148.168 35.8025 148.852 35.5391C149.474 35.3001 150.042 34.935 150.518 34.4664C150.989 33.9924 151.355 33.4237 151.593 32.7976C151.853 32.1023 151.982 31.3639 151.973 30.6207L151.96 26.3547Z" fill="black"/>
<path d="M181.988 37.9566C181.991 38.235 181.936 38.5109 181.827 38.7664C181.725 39.0075 181.58 39.2269 181.398 39.413C181.215 39.5974 180.999 39.7435 180.761 39.843C180.513 39.9477 180.246 40.0011 179.977 40C179.723 39.9982 179.471 39.9504 179.233 39.8587C178.979 39.7622 178.751 39.6075 178.566 39.4067L163.978 23.9288V39.7018H160V19.0447C159.996 18.6395 160.117 18.2432 160.346 17.9115C160.568 17.5826 160.873 17.3211 161.229 17.1551C161.598 17.001 162.003 16.9606 162.394 17.0389C162.788 17.1131 163.149 17.312 163.425 17.6071L178.01 33.0724V17.312H182L181.988 37.9566Z" fill="black"/>
<path d="M146.357 25H141.643C141.288 25 141 25.288 141 25.6432V30.3568C141 30.712 141.288 31 141.643 31H146.357C146.712 31 147 30.712 147 30.3568V25.6432C147 25.288 146.712 25 146.357 25Z" fill="#C00000"/>
<path d="M145.41 0H142.59C142.264 0 142 0.27702 142 0.618741V12.3813C142 12.723 142.264 13 142.59 13H145.41C145.736 13 146 12.723 146 12.3813V0.618741C146 0.27702 145.736 0 145.41 0Z" fill="#C00000"/>
<path d="M145.41 43H142.59C142.264 43 142 43.277 142 43.6187V55.3813C142 55.723 142.264 56 142.59 56H145.41C145.736 56 146 55.723 146 55.3813V43.6187C146 43.277 145.736 43 145.41 43Z" fill="#C00000"/>
<path d="M2.62547 53C2.24577 53 1.89617 52.9375 1.57667 52.8125C1.25717 52.6875 0.979343 52.5139 0.743189 52.2917C0.507036 52.0648 0.324132 51.8009 0.194479 51.5C0.0648265 51.1944 0 50.8611 0 50.5C0 50.1389 0.0648265 49.8079 0.194479 49.5069C0.324132 49.2014 0.507036 48.9375 0.743189 48.7153C0.979343 48.4884 1.25717 48.3125 1.57667 48.1875C1.89617 48.0625 2.24346 48 2.61853 48C2.99822 48 3.34551 48.0625 3.66038 48.1875C3.97988 48.3125 4.25771 48.4884 4.49386 48.7153C4.73002 48.9375 4.91292 49.2014 5.04257 49.5069C5.17223 49.8079 5.23705 50.1389 5.23705 50.5C5.23705 50.8611 5.17223 51.1944 5.04257 51.5C4.91292 51.8056 4.73002 52.0694 4.49386 52.2917C4.25771 52.5139 3.97988 52.6875 3.66038 52.8125C3.34551 52.9375 3.00054 53 2.62547 53ZM2.61853 52.2083C2.86394 52.2083 3.09083 52.1667 3.2992 52.0833C3.50758 52 3.68816 51.8819 3.84097 51.7292C3.99377 51.5718 4.11185 51.3912 4.1952 51.1875C4.28318 50.9792 4.32717 50.75 4.32717 50.5C4.32717 50.25 4.28318 50.0231 4.1952 49.8194C4.11185 49.6111 3.99377 49.4306 3.84097 49.2778C3.68816 49.1204 3.50758 49 3.2992 48.9167C3.09083 48.8333 2.86394 48.7917 2.61853 48.7917C2.37311 48.7917 2.14622 48.8333 1.93785 48.9167C1.73411 49 1.55352 49.1204 1.39608 49.2778C1.24328 49.4306 1.12289 49.6111 1.03491 49.8194C0.95156 50.0231 0.909886 50.25 0.909886 50.5C0.909886 50.7454 0.95156 50.9722 1.03491 51.1806C1.12289 51.3889 1.24328 51.5718 1.39608 51.7292C1.54889 51.8819 1.72948 52 1.93785 52.0833C2.14622 52.1667 2.37311 52.2083 2.61853 52.2083Z" fill="#C00000"/>
<path d="M6.19415 52.9306V48.0694H8.19451C8.62514 48.0694 8.99326 48.1389 9.29887 48.2778C9.60911 48.4167 9.84758 48.6157 10.0143 48.875C10.181 49.1343 10.2643 49.4421 10.2643 49.7986C10.2643 50.1551 10.181 50.463 10.0143 50.7222C9.84758 50.9815 9.60911 51.1806 9.29887 51.3194C8.99326 51.4583 8.62514 51.5278 8.19451 51.5278H6.69424L7.09709 51.1042V52.9306H6.19415ZM7.09709 51.2014L6.69424 50.7639H8.15283C8.55105 50.7639 8.84972 50.6806 9.04883 50.5139C9.25257 50.3426 9.35444 50.1042 9.35444 49.7986C9.35444 49.4884 9.25257 49.25 9.04883 49.0833C8.84972 48.9167 8.55105 48.8333 8.15283 48.8333H6.69424L7.09709 48.3889V51.2014Z" fill="#C00000"/>
<path d="M11.9995 50.0903H14.4166V50.8333H11.9995V50.0903ZM12.069 52.1736H14.8125V52.9306H11.166V48.0694H14.7153V48.8264H12.069V52.1736Z" fill="#C00000"/>
<path d="M15.8191 52.9306V48.0694H17.8194C18.2501 48.0694 18.6182 48.1389 18.9238 48.2778C19.2341 48.4167 19.4725 48.6157 19.6392 48.875C19.8059 49.1343 19.8893 49.4421 19.8893 49.7986C19.8893 50.1551 19.8059 50.463 19.6392 50.7222C19.4725 50.9769 19.2341 51.1736 18.9238 51.3125C18.6182 51.4468 18.2501 51.5139 17.8194 51.5139H16.3192L16.722 51.1042V52.9306H15.8191ZM19.0002 52.9306L17.7708 51.1667H18.7363L19.9726 52.9306H19.0002ZM16.722 51.2014L16.3192 50.7708H17.7778C18.176 50.7708 18.4747 50.6852 18.6738 50.5139C18.8775 50.3426 18.9794 50.1042 18.9794 49.7986C18.9794 49.4884 18.8775 49.25 18.6738 49.0833C18.4747 48.9167 18.176 48.8333 17.7778 48.8333H16.3192L16.722 48.3889V51.2014Z" fill="#C00000"/>
<path d="M20.2119 52.9306L22.3998 48.0694H23.2888L25.4836 52.9306H24.539L22.6567 48.5486H23.0179L21.1426 52.9306H20.2119ZM21.219 51.8056L21.4621 51.0972H24.0876L24.3307 51.8056H21.219Z" fill="#C00000"/>
<path d="M26.8441 52.9306V48.8333H25.2327V48.0694H29.3584V48.8333H27.747V52.9306H26.8441Z" fill="#C00000"/>
<path d="M30.0361 52.9306V48.0694H30.939V52.9306H30.0361Z" fill="#C00000"/>
<path d="M34.5322 53C34.1526 53 33.803 52.9375 33.4835 52.8125C33.164 52.6875 32.8861 52.5139 32.65 52.2917C32.4138 52.0648 32.2309 51.8009 32.1013 51.5C31.9716 51.1944 31.9068 50.8611 31.9068 50.5C31.9068 50.1389 31.9716 49.8079 32.1013 49.5069C32.2309 49.2014 32.4138 48.9375 32.65 48.7153C32.8861 48.4884 33.164 48.3125 33.4835 48.1875C33.803 48.0625 34.1502 48 34.5253 48C34.905 48 35.2523 48.0625 35.5672 48.1875C35.8867 48.3125 36.1645 48.4884 36.4006 48.7153C36.6368 48.9375 36.8197 49.2014 36.9494 49.5069C37.079 49.8079 37.1438 50.1389 37.1438 50.5C37.1438 50.8611 37.079 51.1944 36.9494 51.5C36.8197 51.8056 36.6368 52.0694 36.4006 52.2917C36.1645 52.5139 35.8867 52.6875 35.5672 52.8125C35.2523 52.9375 34.9073 53 34.5322 53ZM34.5253 52.2083C34.7707 52.2083 34.9976 52.1667 35.206 52.0833C35.4144 52 35.5949 51.8819 35.7477 51.7292C35.9006 51.5718 36.0186 51.3912 36.102 51.1875C36.19 50.9792 36.2339 50.75 36.2339 50.5C36.2339 50.25 36.19 50.0231 36.102 49.8194C36.0186 49.6111 35.9006 49.4306 35.7477 49.2778C35.5949 49.1204 35.4144 49 35.206 48.9167C34.9976 48.8333 34.7707 48.7917 34.5253 48.7917C34.2799 48.7917 34.053 48.8333 33.8446 48.9167C33.6409 49 33.4603 49.1204 33.3029 49.2778C33.1501 49.4306 33.0297 49.6111 32.9417 49.8194C32.8583 50.0231 32.8167 50.25 32.8167 50.5C32.8167 50.7454 32.8583 50.9722 32.9417 51.1806C33.0297 51.3889 33.1501 51.5718 33.3029 51.7292C33.4557 51.8819 33.6363 52 33.8446 52.0833C34.053 52.1667 34.2799 52.2083 34.5253 52.2083Z" fill="#C00000"/>
<path d="M38.1009 52.9306V48.0694H38.8441L41.8933 51.8125H41.5252V48.0694H42.4211V52.9306H41.678L38.6288 49.1875H38.9969V52.9306H38.1009Z" fill="#C00000"/>
<path d="M43.0363 52.9306L45.2242 48.0694H46.1133L48.3081 52.9306H47.3635L45.4812 48.5486H45.8424L43.967 52.9306H43.0363ZM44.0435 51.8056L44.2866 51.0972H46.912L47.1551 51.8056H44.0435Z" fill="#C00000"/>
<path d="M48.9264 52.9306V48.0694H49.8294V52.1667H52.3715V52.9306H48.9264Z" fill="#C00000"/>
<path d="M55.0039 52.9306V48.0694H57.0043C57.4349 48.0694 57.803 48.1389 58.1087 48.2778C58.4189 48.4167 58.6574 48.6157 58.8241 48.875C58.9907 49.1343 59.0741 49.4421 59.0741 49.7986C59.0741 50.1551 58.9907 50.463 58.8241 50.7222C58.6574 50.9769 58.4189 51.1736 58.1087 51.3125C57.803 51.4468 57.4349 51.5139 57.0043 51.5139H55.504L55.9069 51.1042V52.9306H55.0039ZM58.185 52.9306L56.9557 51.1667H57.9211L59.1574 52.9306H58.185ZM55.9069 51.2014L55.504 50.7708H56.9626C57.3608 50.7708 57.6595 50.6852 57.8586 50.5139C58.0623 50.3426 58.1642 50.1042 58.1642 49.7986C58.1642 49.4884 58.0623 49.25 57.8586 49.0833C57.6595 48.9167 57.3608 48.8333 56.9626 48.8333H55.504L55.9069 48.3889V51.2014Z" fill="#C00000"/>
<path d="M60.9178 50.0903H63.3349V50.8333H60.9178V50.0903ZM60.9873 52.1736H63.7308V52.9306H60.0843V48.0694H63.6336V48.8264H60.9873V52.1736Z" fill="#C00000"/>
<path d="M66.2446 53C65.8649 53 65.5014 52.9468 65.1541 52.8403C64.8068 52.7292 64.5313 52.588 64.3276 52.4167L64.6402 51.7153C64.8346 51.8681 65.0754 51.9954 65.3625 52.0972C65.6496 52.1991 65.9436 52.25 66.2446 52.25C66.4993 52.25 66.7053 52.2222 66.8628 52.1667C67.0202 52.1111 67.136 52.037 67.2101 51.9444C67.2841 51.8472 67.3212 51.7384 67.3212 51.6181C67.3212 51.4699 67.2679 51.3519 67.1614 51.2639C67.0549 51.1713 66.916 51.0995 66.7447 51.0486C66.578 50.9931 66.3905 50.9421 66.1821 50.8958C65.9783 50.8495 65.7723 50.7963 65.5639 50.7361C65.3602 50.6713 65.1727 50.5903 65.0013 50.4931C64.8346 50.3912 64.698 50.2569 64.5915 50.0903C64.485 49.9236 64.4318 49.7106 64.4318 49.4514C64.4318 49.1875 64.5012 48.9468 64.6402 48.7292C64.7837 48.5069 64.999 48.331 65.2861 48.2014C65.5778 48.0671 65.9459 48 66.3905 48C66.6822 48 66.9716 48.037 67.2587 48.1111C67.5458 48.1852 67.7958 48.2917 68.0088 48.4306L67.724 49.1319C67.5064 49.0023 67.2818 48.9074 67.0503 48.8472C66.8188 48.7824 66.5965 48.75 66.3835 48.75C66.1335 48.75 65.9297 48.7801 65.7723 48.8403C65.6195 48.9005 65.506 48.9792 65.432 49.0764C65.3625 49.1736 65.3278 49.2847 65.3278 49.4097C65.3278 49.5579 65.3787 49.6782 65.4806 49.7708C65.5871 49.8588 65.7237 49.9282 65.8904 49.9792C66.0617 50.0301 66.2515 50.081 66.4599 50.1319C66.6683 50.1782 66.8743 50.2315 67.0781 50.2917C67.2865 50.3519 67.474 50.4306 67.6407 50.5278C67.812 50.625 67.9486 50.7569 68.0505 50.9236C68.157 51.0903 68.2102 51.3009 68.2102 51.5556C68.2102 51.8148 68.1385 52.0556 67.9949 52.2778C67.856 52.4954 67.6407 52.6713 67.349 52.8056C67.0573 52.9352 66.6891 53 66.2446 53Z" fill="#C00000"/>
<path d="M69.1056 52.9306V48.0694H70.0085V52.9306H69.1056Z" fill="#C00000"/>
<path d="M71.3236 52.9306V48.0694H72.2265V52.1667H74.7686V52.9306H71.3236Z" fill="#C00000"/>
<path d="M75.4815 52.9306V48.0694H76.3844V52.9306H75.4815Z" fill="#C00000"/>
<path d="M78.533 50.0903H80.9501V50.8333H78.533V50.0903ZM78.6025 52.1736H81.346V52.9306H77.6995V48.0694H81.2488V48.8264H78.6025V52.1736Z" fill="#C00000"/>
<path d="M82.3526 52.9306V48.0694H83.0958L86.1449 51.8125H85.7768V48.0694H86.6728V52.9306H85.9296L82.8805 49.1875H83.2486V52.9306H82.3526Z" fill="#C00000"/>
<path d="M90.226 53C89.8556 53 89.5106 52.9398 89.1911 52.8194C88.8762 52.6944 88.6007 52.5208 88.3646 52.2986C88.1331 52.0718 87.9525 51.8056 87.8228 51.5C87.6932 51.1944 87.6283 50.8611 87.6283 50.5C87.6283 50.1389 87.6932 49.8056 87.8228 49.5C87.9525 49.1944 88.1354 48.9306 88.3715 48.7083C88.6077 48.4815 88.8832 48.3079 89.1981 48.1875C89.5129 48.0625 89.8579 48 90.233 48C90.6312 48 90.9947 48.0694 91.3234 48.2083C91.6522 48.3426 91.93 48.544 92.1569 48.8125L91.5735 49.3611C91.3975 49.1713 91.2007 49.0301 90.9831 48.9375C90.7655 48.8403 90.5293 48.7917 90.2746 48.7917C90.02 48.7917 89.7861 48.8333 89.5731 48.9167C89.3648 49 89.1819 49.1181 89.0244 49.2708C88.8716 49.4236 88.7512 49.6042 88.6632 49.8125C88.5799 50.0208 88.5382 50.25 88.5382 50.5C88.5382 50.75 88.5799 50.9792 88.6632 51.1875C88.7512 51.3958 88.8716 51.5764 89.0244 51.7292C89.1819 51.8819 89.3648 52 89.5731 52.0833C89.7861 52.1667 90.02 52.2083 90.2746 52.2083C90.5293 52.2083 90.7655 52.162 90.9831 52.0694C91.2007 51.9722 91.3975 51.8264 91.5735 51.6319L92.1569 52.1875C91.93 52.4514 91.6522 52.6528 91.3234 52.7917C90.9947 52.9306 90.6289 53 90.226 53Z" fill="#C00000"/>
<path d="M93.8556 50.0903H96.2727V50.8333H93.8556V50.0903ZM93.925 52.1736H96.6686V52.9306H93.0221V48.0694H96.5714V48.8264H93.925V52.1736Z" fill="#C00000"/>
<path d="M97.9375 52.9792C97.78 52.9792 97.6458 52.9259 97.5346 52.8194C97.4235 52.7083 97.3679 52.5694 97.3679 52.4028C97.3679 52.2269 97.4235 52.088 97.5346 51.9861C97.6458 51.8796 97.78 51.8264 97.9375 51.8264C98.0949 51.8264 98.2292 51.8796 98.3403 51.9861C98.4515 52.088 98.507 52.2269 98.507 52.4028C98.507 52.5694 98.4515 52.7083 98.3403 52.8194C98.2292 52.9259 98.0949 52.9792 97.9375 52.9792Z" fill="#C00000"/>
<path d="M102.866 53C102.486 53 102.122 52.9468 101.775 52.8403C101.428 52.7292 101.152 52.588 100.948 52.4167L101.261 51.7153C101.456 51.8681 101.696 51.9954 101.983 52.0972C102.27 52.1991 102.565 52.25 102.866 52.25C103.12 52.25 103.326 52.2222 103.484 52.1667C103.641 52.1111 103.757 52.037 103.831 51.9444C103.905 51.8472 103.942 51.7384 103.942 51.6181C103.942 51.4699 103.889 51.3519 103.782 51.2639C103.676 51.1713 103.537 51.0995 103.366 51.0486C103.199 50.9931 103.011 50.9421 102.803 50.8958C102.599 50.8495 102.393 50.7963 102.185 50.7361C101.981 50.6713 101.794 50.5903 101.622 50.4931C101.456 50.3912 101.319 50.2569 101.212 50.0903C101.106 49.9236 101.053 49.7106 101.053 49.4514C101.053 49.1875 101.122 48.9468 101.261 48.7292C101.405 48.5069 101.62 48.331 101.907 48.2014C102.199 48.0671 102.567 48 103.011 48C103.303 48 103.592 48.037 103.88 48.1111C104.167 48.1852 104.417 48.2917 104.63 48.4306L104.345 49.1319C104.127 49.0023 103.903 48.9074 103.671 48.8472C103.44 48.7824 103.217 48.75 103.004 48.75C102.754 48.75 102.551 48.7801 102.393 48.8403C102.24 48.9005 102.127 48.9792 102.053 49.0764C101.983 49.1736 101.949 49.2847 101.949 49.4097C101.949 49.5579 102 49.6782 102.101 49.7708C102.208 49.8588 102.345 49.9282 102.511 49.9792C102.683 50.0301 102.872 50.081 103.081 50.1319C103.289 50.1782 103.495 50.2315 103.699 50.2917C103.907 50.3519 104.095 50.4306 104.262 50.5278C104.433 50.625 104.57 50.7569 104.671 50.9236C104.778 51.0903 104.831 51.3009 104.831 51.5556C104.831 51.8148 104.759 52.0556 104.616 52.2778C104.477 52.4954 104.262 52.6713 103.97 52.8056C103.678 52.9352 103.31 53 102.866 53Z" fill="#C00000"/>
<path d="M106.56 50.0903H108.977V50.8333H106.56V50.0903ZM106.629 52.1736H109.373V52.9306H105.726V48.0694H109.276V48.8264H106.629V52.1736Z" fill="#C00000"/>
<path d="M112.63 53C112.26 53 111.915 52.9398 111.595 52.8194C111.28 52.6944 111.005 52.5208 110.769 52.2986C110.537 52.0718 110.356 51.8056 110.227 51.5C110.097 51.1944 110.032 50.8611 110.032 50.5C110.032 50.1389 110.097 49.8056 110.227 49.5C110.356 49.1944 110.539 48.9306 110.775 48.7083C111.012 48.4815 111.287 48.3079 111.602 48.1875C111.917 48.0625 112.262 48 112.637 48C113.035 48 113.399 48.0694 113.727 48.2083C114.056 48.3426 114.334 48.544 114.561 48.8125L113.977 49.3611C113.801 49.1713 113.605 49.0301 113.387 48.9375C113.169 48.8403 112.933 48.7917 112.679 48.7917C112.424 48.7917 112.19 48.8333 111.977 48.9167C111.769 49 111.586 49.1181 111.428 49.2708C111.276 49.4236 111.155 49.6042 111.067 49.8125C110.984 50.0208 110.942 50.25 110.942 50.5C110.942 50.75 110.984 50.9792 111.067 51.1875C111.155 51.3958 111.276 51.5764 111.428 51.7292C111.586 51.8819 111.769 52 111.977 52.0833C112.19 52.1667 112.424 52.2083 112.679 52.2083C112.933 52.2083 113.169 52.162 113.387 52.0694C113.605 51.9722 113.801 51.8264 113.977 51.6319L114.561 52.1875C114.334 52.4514 114.056 52.6528 113.727 52.7917C113.399 52.9306 113.033 53 112.63 53Z" fill="#C00000"/>
<path d="M117.51 53C116.843 53 116.32 52.8125 115.94 52.4375C115.565 52.0625 115.378 51.5208 115.378 50.8125V48.0694H116.281V50.7778C116.281 51.2778 116.387 51.6412 116.6 51.8681C116.818 52.0949 117.123 52.2083 117.517 52.2083C117.91 52.2083 118.214 52.0949 118.427 51.8681C118.64 51.6412 118.746 51.2778 118.746 50.7778V48.0694H119.635V50.8125C119.635 51.5208 119.445 52.0625 119.066 52.4375C118.691 52.8125 118.172 53 117.51 53Z" fill="#C00000"/>
<path d="M120.9 52.9306V48.0694H122.9C123.331 48.0694 123.699 48.1389 124.005 48.2778C124.315 48.4167 124.553 48.6157 124.72 48.875C124.887 49.1343 124.97 49.4421 124.97 49.7986C124.97 50.1551 124.887 50.463 124.72 50.7222C124.553 50.9769 124.315 51.1736 124.005 51.3125C123.699 51.4468 123.331 51.5139 122.9 51.5139H121.4L121.803 51.1042V52.9306H120.9ZM124.081 52.9306L122.852 51.1667H123.817L125.053 52.9306H124.081ZM121.803 51.2014L121.4 50.7708H122.859C123.257 50.7708 123.555 50.6852 123.755 50.5139C123.958 50.3426 124.06 50.1042 124.06 49.7986C124.06 49.4884 123.958 49.25 123.755 49.0833C123.555 48.9167 123.257 48.8333 122.859 48.8333H121.4L121.803 48.3889V51.2014Z" fill="#C00000"/>
<path d="M126.814 50.0903H129.231V50.8333H126.814V50.0903ZM126.883 52.1736H129.627V52.9306H125.98V48.0694H129.529V48.8264H126.883V52.1736Z" fill="#C00000"/>
<path d="M130.633 52.9306V48.0694H132.759C133.287 48.0694 133.75 48.1713 134.148 48.375C134.546 48.5787 134.856 48.8611 135.079 49.2222C135.301 49.5833 135.412 50.0093 135.412 50.5C135.412 50.9861 135.301 51.412 135.079 51.7778C134.856 52.1389 134.546 52.4213 134.148 52.625C133.75 52.8287 133.287 52.9306 132.759 52.9306H130.633ZM131.536 52.1667H132.717C133.083 52.1667 133.398 52.0972 133.662 51.9583C133.93 51.8194 134.136 51.625 134.28 51.375C134.428 51.125 134.502 50.8333 134.502 50.5C134.502 50.162 134.428 49.8704 134.28 49.625C134.136 49.375 133.93 49.1806 133.662 49.0417C133.398 48.9028 133.083 48.8333 132.717 48.8333H131.536V52.1667Z" fill="#C00000"/>
<path d="M136.43 52.9792C136.273 52.9792 136.139 52.9259 136.028 52.8194C135.916 52.7083 135.861 52.5694 135.861 52.4028C135.861 52.2269 135.916 52.088 136.028 51.9861C136.139 51.8796 136.273 51.8264 136.43 51.8264C136.588 51.8264 136.722 51.8796 136.833 51.9861C136.944 52.088 137 52.2269 137 52.4028C137 52.5694 136.944 52.7083 136.833 52.8194C136.722 52.9259 136.588 52.9792 136.43 52.9792Z" fill="#C00000"/>
</g>
<defs>
<clipPath id="clip0_1669_4646">
<rect width="182" height="56" fill="white"/>
</clipPath>
</defs>
</svg>
